<mxfile host="app.diagrams.net" modified="2023-10-24T04:23:34.879Z" agent="Mozilla/5.0 (Windows NT 10.0; Win64; x64) AppleWebKit/537.36 (KHTML, like Gecko) Chrome/118.0.0.0 Safari/537.36" etag="5ebubk_mv8faB4lAEKPa" version="22.0.6" type="device">
  <diagram name="Page-1" id="NzgqwFKF3O8cxOtmx94T">
    <mxGraphModel dx="2140" dy="1657" grid="1" gridSize="10" guides="1" tooltips="1" connect="1" arrows="1" fold="1" page="1" pageScale="1" pageWidth="850" pageHeight="1100" math="0" shadow="0">
      <root>
        <mxCell id="0" />
        <mxCell id="1" parent="0" />
        <mxCell id="MbufP7EUfqNuo32D7OIQ-1" value="&lt;font style=&quot;font-size: 24px;&quot;&gt;Core Java Programming&amp;nbsp;&lt;/font&gt;" style="text;html=1;strokeColor=none;fillColor=none;align=center;verticalAlign=middle;whiteSpace=wrap;rounded=0;fontStyle=1" vertex="1" parent="1">
          <mxGeometry x="250" y="-10" width="290" height="30" as="geometry" />
        </mxCell>
        <mxCell id="MbufP7EUfqNuo32D7OIQ-2" value="&lt;font style=&quot;font-size: 24px;&quot;&gt;Project Flow&lt;/font&gt;" style="text;html=1;strokeColor=none;fillColor=none;align=center;verticalAlign=middle;whiteSpace=wrap;rounded=0;fontStyle=1" vertex="1" parent="1">
          <mxGeometry x="270" y="70" width="290" height="30" as="geometry" />
        </mxCell>
        <mxCell id="MbufP7EUfqNuo32D7OIQ-3" value="&lt;font style=&quot;font-size: 24px;&quot;&gt;Controller&lt;/font&gt;" style="text;html=1;strokeColor=none;fillColor=none;align=center;verticalAlign=middle;whiteSpace=wrap;rounded=0;fontStyle=1" vertex="1" parent="1">
          <mxGeometry x="170" y="180" width="60" height="30" as="geometry" />
        </mxCell>
        <mxCell id="MbufP7EUfqNuo32D7OIQ-4" value="Actor" style="shape=umlActor;verticalLabelPosition=bottom;verticalAlign=top;html=1;outlineConnect=0;" vertex="1" parent="1">
          <mxGeometry x="-90" y="290" width="30" height="60" as="geometry" />
        </mxCell>
        <mxCell id="MbufP7EUfqNuo32D7OIQ-5" value="&lt;font style=&quot;font-size: 24px;&quot;&gt;User / App&lt;/font&gt;" style="text;html=1;strokeColor=none;fillColor=none;align=center;verticalAlign=middle;whiteSpace=wrap;rounded=0;fontStyle=1" vertex="1" parent="1">
          <mxGeometry x="-120" y="400" width="170" height="30" as="geometry" />
        </mxCell>
        <mxCell id="MbufP7EUfqNuo32D7OIQ-8" value="&lt;font style=&quot;font-size: 24px;&quot;&gt;Service&lt;/font&gt;" style="text;html=1;strokeColor=none;fillColor=none;align=center;verticalAlign=middle;whiteSpace=wrap;rounded=0;fontStyle=1" vertex="1" parent="1">
          <mxGeometry x="460" y="180" width="60" height="30" as="geometry" />
        </mxCell>
        <mxCell id="MbufP7EUfqNuo32D7OIQ-9" value="" style="shape=flexArrow;endArrow=classic;startArrow=classic;html=1;rounded=0;" edge="1" parent="1">
          <mxGeometry width="100" height="100" relative="1" as="geometry">
            <mxPoint x="280" y="319.5" as="sourcePoint" />
            <mxPoint x="470" y="319.5" as="targetPoint" />
          </mxGeometry>
        </mxCell>
        <mxCell id="MbufP7EUfqNuo32D7OIQ-10" value="" style="shape=flexArrow;endArrow=classic;startArrow=classic;html=1;rounded=0;" edge="1" parent="1">
          <mxGeometry width="100" height="100" relative="1" as="geometry">
            <mxPoint x="-30" y="319.5" as="sourcePoint" />
            <mxPoint x="160" y="319.5" as="targetPoint" />
          </mxGeometry>
        </mxCell>
        <mxCell id="MbufP7EUfqNuo32D7OIQ-11" value="&lt;font style=&quot;font-size: 24px;&quot;&gt;&lt;b&gt;DB&lt;/b&gt;&lt;/font&gt;" style="shape=cylinder3;whiteSpace=wrap;html=1;boundedLbl=1;backgroundOutline=1;size=15;" vertex="1" parent="1">
          <mxGeometry x="1080" y="400" width="60" height="80" as="geometry" />
        </mxCell>
        <mxCell id="MbufP7EUfqNuo32D7OIQ-12" value="&lt;font style=&quot;font-size: 24px;&quot;&gt;Repository / Persistence&lt;/font&gt;" style="text;html=1;strokeColor=none;fillColor=none;align=center;verticalAlign=middle;whiteSpace=wrap;rounded=0;fontStyle=1" vertex="1" parent="1">
          <mxGeometry x="760" y="180" width="240" height="30" as="geometry" />
        </mxCell>
        <mxCell id="MbufP7EUfqNuo32D7OIQ-13" value="" style="shape=flexArrow;endArrow=classic;startArrow=classic;html=1;rounded=0;" edge="1" parent="1">
          <mxGeometry width="100" height="100" relative="1" as="geometry">
            <mxPoint x="600" y="319.5" as="sourcePoint" />
            <mxPoint x="790" y="319.5" as="targetPoint" />
          </mxGeometry>
        </mxCell>
        <mxCell id="MbufP7EUfqNuo32D7OIQ-14" value="" style="shape=flexArrow;endArrow=classic;startArrow=classic;html=1;rounded=0;entryX=-0.147;entryY=0.173;entryDx=0;entryDy=0;entryPerimeter=0;" edge="1" parent="1" target="MbufP7EUfqNuo32D7OIQ-11">
          <mxGeometry width="100" height="100" relative="1" as="geometry">
            <mxPoint x="920" y="250" as="sourcePoint" />
            <mxPoint x="1060" y="230" as="targetPoint" />
          </mxGeometry>
        </mxCell>
        <mxCell id="MbufP7EUfqNuo32D7OIQ-32" value="&lt;font style=&quot;font-size: 24px;&quot;&gt;take input&amp;nbsp;&lt;br&gt;give output&lt;br&gt;&lt;/font&gt;" style="text;html=1;strokeColor=none;fillColor=none;align=center;verticalAlign=middle;whiteSpace=wrap;rounded=0;fontStyle=1" vertex="1" parent="1">
          <mxGeometry x="105" y="240" width="190" height="30" as="geometry" />
        </mxCell>
        <mxCell id="MbufP7EUfqNuo32D7OIQ-35" value="&lt;font style=&quot;font-size: 24px;&quot;&gt;logic processing&lt;br&gt;&lt;/font&gt;" style="text;html=1;strokeColor=none;fillColor=none;align=center;verticalAlign=middle;whiteSpace=wrap;rounded=0;fontStyle=1" vertex="1" parent="1">
          <mxGeometry x="400" y="240" width="190" height="30" as="geometry" />
        </mxCell>
        <mxCell id="MbufP7EUfqNuo32D7OIQ-36" value="&lt;font style=&quot;font-size: 24px;&quot;&gt;Collections Framework : ArrayList, HashMap, TreeSet&lt;/font&gt;" style="text;html=1;strokeColor=none;fillColor=none;align=center;verticalAlign=middle;whiteSpace=wrap;rounded=0;fontStyle=1" vertex="1" parent="1">
          <mxGeometry x="105" y="720" width="620" height="30" as="geometry" />
        </mxCell>
        <mxCell id="MbufP7EUfqNuo32D7OIQ-37" value="&lt;font style=&quot;font-size: 24px;&quot;&gt;Exception Handling&lt;/font&gt;" style="text;html=1;strokeColor=none;fillColor=none;align=center;verticalAlign=middle;whiteSpace=wrap;rounded=0;fontStyle=1" vertex="1" parent="1">
          <mxGeometry x="70" y="770" width="620" height="30" as="geometry" />
        </mxCell>
        <mxCell id="MbufP7EUfqNuo32D7OIQ-38" value="&lt;font style=&quot;font-size: 24px;&quot;&gt;Contructors and Encapsulation&lt;/font&gt;" style="text;html=1;strokeColor=none;fillColor=none;align=center;verticalAlign=middle;whiteSpace=wrap;rounded=0;fontStyle=1" vertex="1" parent="1">
          <mxGeometry x="-10" y="880" width="620" height="30" as="geometry" />
        </mxCell>
        <mxCell id="MbufP7EUfqNuo32D7OIQ-41" value="&lt;font style=&quot;font-size: 24px;&quot;&gt;JUnit&lt;/font&gt;" style="text;html=1;strokeColor=none;fillColor=none;align=center;verticalAlign=middle;whiteSpace=wrap;rounded=0;fontStyle=1" vertex="1" parent="1">
          <mxGeometry x="30" y="840" width="620" height="30" as="geometry" />
        </mxCell>
        <mxCell id="MbufP7EUfqNuo32D7OIQ-42" value="&lt;span style=&quot;font-size: 24px;&quot;&gt;Exception&lt;/span&gt;" style="text;html=1;strokeColor=none;fillColor=none;align=center;verticalAlign=middle;whiteSpace=wrap;rounded=0;fontStyle=1" vertex="1" parent="1">
          <mxGeometry x="385" y="480" width="60" height="30" as="geometry" />
        </mxCell>
        <mxCell id="MbufP7EUfqNuo32D7OIQ-43" value="&lt;span style=&quot;font-size: 24px;&quot;&gt;Model&lt;/span&gt;" style="text;html=1;strokeColor=none;fillColor=none;align=center;verticalAlign=middle;whiteSpace=wrap;rounded=0;fontStyle=1" vertex="1" parent="1">
          <mxGeometry x="760" y="70" width="60" height="30" as="geometry" />
        </mxCell>
        <mxCell id="MbufP7EUfqNuo32D7OIQ-44" value="&lt;font style=&quot;font-size: 24px;&quot;&gt;StudentController&lt;/font&gt;" style="text;html=1;strokeColor=none;fillColor=none;align=center;verticalAlign=middle;whiteSpace=wrap;rounded=0;fontStyle=1" vertex="1" parent="1">
          <mxGeometry x="105" y="1120" width="170" height="30" as="geometry" />
        </mxCell>
        <mxCell id="MbufP7EUfqNuo32D7OIQ-45" value="&lt;font style=&quot;font-size: 24px;&quot;&gt;Student&lt;/font&gt;" style="text;html=1;strokeColor=none;fillColor=none;align=center;verticalAlign=middle;whiteSpace=wrap;rounded=0;fontStyle=1" vertex="1" parent="1">
          <mxGeometry x="670" y="960" width="170" height="30" as="geometry" />
        </mxCell>
        <mxCell id="MbufP7EUfqNuo32D7OIQ-46" value="&lt;font style=&quot;font-size: 24px;&quot;&gt;id&lt;br&gt;roll&lt;br&gt;name&lt;br&gt;listMarks&lt;br&gt;&lt;/font&gt;" style="text;html=1;strokeColor=none;fillColor=none;align=center;verticalAlign=middle;whiteSpace=wrap;rounded=0;fontStyle=1" vertex="1" parent="1">
          <mxGeometry x="680" y="1020" width="170" height="30" as="geometry" />
        </mxCell>
        <mxCell id="MbufP7EUfqNuo32D7OIQ-47" value="&lt;font style=&quot;font-size: 24px;&quot;&gt;StudentService&lt;/font&gt;" style="text;html=1;strokeColor=none;fillColor=none;align=center;verticalAlign=middle;whiteSpace=wrap;rounded=0;fontStyle=1" vertex="1" parent="1">
          <mxGeometry x="910" y="1110" width="170" height="30" as="geometry" />
        </mxCell>
        <mxCell id="MbufP7EUfqNuo32D7OIQ-48" value="&lt;font style=&quot;font-size: 24px;&quot;&gt;Console&lt;/font&gt;" style="text;html=1;strokeColor=none;fillColor=none;align=center;verticalAlign=middle;whiteSpace=wrap;rounded=0;fontStyle=1" vertex="1" parent="1">
          <mxGeometry x="-130" y="1270" width="170" height="30" as="geometry" />
        </mxCell>
        <mxCell id="MbufP7EUfqNuo32D7OIQ-49" value="Actor" style="shape=umlActor;verticalLabelPosition=bottom;verticalAlign=top;html=1;outlineConnect=0;" vertex="1" parent="1">
          <mxGeometry x="-70" y="1320" width="30" height="60" as="geometry" />
        </mxCell>
        <mxCell id="MbufP7EUfqNuo32D7OIQ-50" value="" style="shape=flexArrow;endArrow=classic;startArrow=classic;html=1;rounded=0;entryX=0;entryY=1;entryDx=0;entryDy=0;" edge="1" parent="1" target="MbufP7EUfqNuo32D7OIQ-44">
          <mxGeometry width="100" height="100" relative="1" as="geometry">
            <mxPoint x="-60" y="1260" as="sourcePoint" />
            <mxPoint x="40" y="1160" as="targetPoint" />
          </mxGeometry>
        </mxCell>
        <mxCell id="MbufP7EUfqNuo32D7OIQ-51" value="" style="shape=image;verticalLabelPosition=bottom;labelBackgroundColor=default;verticalAlign=top;aspect=fixed;imageAspect=0;image=data:image/png,iVBORw0KGgoAAAANSUhEUgAAA6MAAADmCAYAAAAgG1NeAAAAAXNSR0IArs4c6QAAAARnQU1BAACxjwv8YQUAAAAJcEhZcwAAEnQAABJ0Ad5mH3gAADrfSURBVHhe7d1NaxRZ28Dxa57PEAMZmQYXvYhmlWEECTgxi6xEXDQGQSQbCUpwr0ERxbgXcQhuggyIkoWIqyxiDISAMlllzCILoQfvQCbfYZ5zVZ2qru6u6q737k7/fxDs7qStqlOnTp2rzttP/xkCAAAAAECJ/s/+CwAAAABAaQhGAQAAAAClIxgFAAAAAJSOYBQAAAAAUDqCUQAAAABA6Xoym+722rws7YlUZ57Jq4tj9tMI+ysy/XZHZudW5f64/ewEqW89lJsbdZHRmry+c1kq9vP+dShvXt6TlaOY5w8nQv14V/58916+H9XlwH7muiBPHy3IlH3XTwZxn/sb1/7QyfH+m+i+DwAYGj1oGd2Vz+aGJCbsmjkb94ZUkTOn7EsgM1OpXnso04/mZfrlimzbT/tb7/bZeWDy4rmstwV1/WsQ9xnoT3ncf9Pc9wEAw6D0YLS+9V7W9cXEVbk+4nzU7PijLK99lO1j+77V8a4s51oZ16f9poKvlfy4Py8/St1+GwNo/4Os7NkzeLQjq1uH7ut+1qt9NtfjE225V6M1ebq4KpuPgj992MI4iPvcC05Z+5DyDA0F3X+73vcBAEOr5GD0ULZthXr23KTzb6v6ty+yvrcmSy8eyvK+qXCfOi1VOS2VEfPdLVNxclo7duSz/g5IY/yKLEzYDtGjF2R+ELqM9Wif9Xp0WxYvyNM7l2VqACqSg7jPveCWtYShaCjm/tv9vg8AGF7ljhm140+6jo883pU3m+/dlqBR81dHdamOihzoWKWJmsxPF1/B9Ma3yMRd2awVdwNlzCj6WVnXQZ4GcZ97IXnZw7U/FPK+/8a97wMAhlKpLaPbf5sbklGd+LXzDWlkUq7XHsvmYk1mzY1QHWgrx+KqvKrR0gEAQCFyvv/Gvu8DAIZSeS2jxx/l1os196bWbczW8aFsb/4hS21PZisyO3NVblycLPymlrh1RZ8mf/sqG3s/zH66N3CH2f/Zieh97tw60WiJ0IkfZuceh89oaJ9kb5j08idr0e1eui03xsdyTqvW1hGTVlsfZHVvx3ly7hg15/iaOcdRlZaUaeWLON7q6Pnop/be0/k2MfJjQOgMrXH3O6nU++ydo4osLD6W69rFbu0Pc44a+1zVrr6dzpGVtpXRSyedQMhXVDq1SLzPbS03Iek1UZMHpiIetd/Jjtc7P+55/GVrRZ5smOvH/MZvcTT7dMvsk/NZl23H5pfBMbWVSRHXvt13FStfRVy/5ZRXIa25/nXW4bpKU+Z40hxvDnkytTzvv0nu+wCAoVRaMOoHXV0qiP7fmdvd7MxtuX/2L3Mz+yHzj66ImJuxc4PU382Z35kbeVESVWjjVPIiuihFB6ONSpQerxtUOL9oUjeVlie20hpKA8M7eVYCGvs1O3dX5JOOIbK/ahKxzxnSSjXyR4So7/oVzlZxK0luZdDNf+FyX34o9T4HztGMOUcb5hzZ3zRrPUe7svwo6m/DtVfwu6dTvnkyh30OVvyviTyJyp+heSvN8Xrnx3w+J7LUdI7NOZk7Lxtvm/chMpBKIsdgdHbumZz55JVPrfqzvEobjKYuc4zUx5spT6aX9/3X//8SPswCAAyPkoJRr8IYXUnxaYVpUxpPm52b8o/G98zvl9/9kN9zrbC0SxyMmn2amfhNps5OSiVwfMHKSFhlKDwY1RkLvSDPVFYWzbGGpVmgclk1QceDwBPrpkpQrhWBRuXOUzX//4Npe9zHZt91kgv9RVhFKUNadTpe52n+tw+yenQ6XmuBV9mLGYz6+cFoGzdlWxLq50weLXIt3Nj7HHGOTB7QdKnvfzTpbCu3TXkje2AXrLg3n6ND87sPfgtgfpXoHIPRgOC+a768aX/f+sAh3fG2nB9zDl6bc/CPk8e0ta0uBxqomuv+l2/FVebDy55O0uYrq8flVapgNEuZk+V4M+TJTHSfc7v/JrjvAwCGVjljRve/2uDkfOfuTGrkcudxKeb39wsORBPTfTb7dF0rCi37XRlfkAczbhXkYO+vGEsoBAJRrSRq5Sg0LUwl651X0dFKVqCSZOh2Xy3WpKpv9t7Lm6ip+jNytq2VUW8fRyblvrfdoy/tSwRkSat/f7iVN1NpnG85XhkZk6mL5pgL6bb2UVa9QNQ53pb8qduuFRyIZuCfI/u+Mn7ZT2c5+l8gnc25a1oCZVWeTthfaYW55Xf601S5N+nkLanSnifHpKLnZ+6C+/ZoTf7cd19mk3Gf22jFWf8mmF5XZGHUfb3+9677QuVyvCYAsufmF+0Sac6GdnefnXOv+8qp085fNZ+n/hA/X6n+KK8SS13m5Hm8CfJkVnnef5Pc9wEAQ6uEYNTclD+5T3DTT2BQl+//2pcnmbYq6pNkLxDt1Fpx/JdsOC0UHZb5GPlZzjgvikk/t5IVsu3Adje+5bgEj7PMgNJ1NndLq5xvb7qVSj0nDzoGMv0n6hw1gpwf8o/7KrPgkiqRebKoSnQuolpwTGBp9zkoj+Otzlxpr9ibIDrX7t4FSJyv+qC8SiVtmZPb8SbLk8VIcz7yuO8DAIZB8cFonJtyJ+MLTmtGv1fO9Oa7vbUit14+lOlH800/Xje+zr7IE697q6mMdu025z+x35Gllu01fhrdF7//W+a6rGNypmNFKWVajVyWedvqdbDxXG6av7+19lHeFLrm7KHUnfxrjP5MpaqDf7zJe7QLtvsqRJmV6KR0PUX7ssVUzbasBrpT5nG8Z061l4nV0RTlZL/r6/Kqg7RlTm7HmyxP5i7t/TfrfR8AMDQKD0b9VqWOFbYBp+NsHt2TJR0fFpxNM5HzMuN1L9x73969dUAdHLVUsjKmlVbAXs9dsK0V2p13TVbe3nMqd1pJLDLdTmSQ0ANud1SjD7ueFmHYjvek6WWZM6iG4r4PAMhFwcHornx2xtpVZGG6wKe3PdUYG6THqbNMOk+rAz+vvXFUXUzVntnxbnVZebESs5Kjk240by/sp/M4ueI0B3D5pJUz3kr/ftGk14ypJNqWJ60kLr142D/jzRDKb1EckpbmYTvezvq7vIqSvswZzOPNZhju+wCAvBQbjA7DBAZ+dyQdR5V1uRmdCOeZHWO2Yyo5JiB1Pg/hj2X6IfW+C74O5btNk6ZuiLmmleFNIHLHVOi8yUA0kN/Mcyxio5tlvAmohle8FsBGt+dBb2ketuPNpI/Lq/q/P+yrGOKWOX1dPheMiYsAAAkUGIw2JjCYvVTADKd9KGz8l05K9GenNQjbjMn1O3dl1nltAtKXEQFpYPKLfIOv7Opb7+1YqAvye8RYo3zSKiAwtitvjaAjrxlgT6bK2fNuBbxTOu1/sEuDVGTm7GAHZyfmeHOcxCpSH5RXbUMGDGeJlFhj+kN0KnP6uHwu1vDd9wEA2RQXjAYmMIgKSE4Ev9Ihsv4pOH7ITtKjkxLZlpH4gsujaED6MaTlZVJueF1a957LtAatx82Vrbqug6f7sFZQZejor+an/rq9teC6iy0zhWZMq7pzLOZ7+4ct6WHem0qlv/xKzi1QlYtX7cMBs99vH8py66yaNp3fDHugGqict6eTPcfe2okTVwd/3cEBP14/mHYeehU99rFX5dWYTE14230vy/7EQ7otU1a1rOXZKn2Z0wflcy8My30fAJCbn/4z7OtcbTsLuGtAErH8R5/z9j90QfIWwYXv21Vk1lRY17XFL2S5lo4Lz+tkP3bR9KilXjT4W+rWmhjjGOI7bFv4PkzUec8lrToJTad4++yISGdn2Z13nYPlXBefz7TPje9GXn/OYvZaEQ9Z6D8gyXXgCqyTG6Fq/q8H5v9qS+OcJN7nmGkRLs3xNs5PMM94+bvpnHn7FpUvM/LTKkwB+ar88krZJbPsu2YVWZg7LxtvtZxt3+f0ZY4r9fFmypO9M+j3fQBA+QpqGW1MYDDoXfHiqFx87M622LSEQ8WphL5efCz3z9m195Iaudy0aP7NkBbSqZrZ9uJdWZgw27OfeaqjF2RhxuxDrhW7Mbl+zZvEo3Wbesw1eeos0B5+3rOkVeXibfPdmsyGbVePVSdEKqDC7hiZlPt3ntl9b96CvtfJmG7QEmAE08l+ZHnn6FVTYDboBvt4/ZliW/a9KOWXV0p7mtx1yo0GW+Y8eizXT9mPQmQtc3pzvL0yXPd9AEA+CmkZ9Z8m5/6EGwAA9Bvu+wCANApoGT2UbdstafYcNyQAAE427vsAgHTyD0a92SNHa3RbBADgpOO+DwBIqbAJjAAAAAAAiFLgOqMAAAAAAIQjGAUAAAAAlI5gFAAAAABQOoJRAAAAAEDpCEYBAAAAAKUjGAUAAAAAlI5gFAAAAABQOoJRAAAAAEDpCEYBAAAAAKUjGAUAAAAAlI5gFAAAAABQOoJRAAAAAEDpCEYBAAAAAKUjGAUAAAAAlI5gFAAAAABQOoJRAAAAAEDpCEYBAAAAAKUjGAUAAAAAlI5gFAAAAABQOoJRAAAAAEDpCEYBAAAAAKUjGAUAAAAAlI5gFAAAAABQOoJRAAAAAEDpCEYBAAAAAKUjGAUAAAAAlI5gFAAAAABQOoJRAAAAAEDpCEYBAAAAAKUjGAUAAAAAlI5gFAAAAABQOoJRAAAAAEDpCEYBAAAAAKUjGAUAAAAAlI5gFAAAAABQOoJRAAAAAEDpCEYBAAAAAKUjGAUAAAAAlI5gFAAAAABQOoJRAAAAAEDpCEYBABgC9f0VubW2a98Vo771UG5tHdp3AAB01pNgdHttXqYfzce7YZmbp/7t8r59f8LojVuPb/rlR6nbz5A/0nm4cf577VDevExQ7iN/5l568+2OHOy9L+5+evxRnmzU5WDjXu/Oc451hkR1FQBAKj0IRnfl857+W5GZs2POJ91V5Mwp+xIA+pIJuNa8oHdFtu2nKM52IL3fHNsP0c4EibdMIKpm5x7L/XHnZf5GLsuDuQvOSw1Ie/cQOY86Q5q6CgAgqdKD0frWe1nXFxNX5fqI81Ezc9NcXvso21EVi+NdWc61otd4Yh/7h9YVAK32P8jKni0ZjnZkldaUYpl7xWogvTe+9Wl6O/c0EzT37L5h7pkv1uTAvKrOPOsciNpWxc4/DzsG/pXxBXk9U3Fer78t4aFMQXWGrnUVAEAuSg5GD2XbVh5mz006/7aqf/si63trsvTioSzvm8rFqdNSldNSGTHf1a52L57Luql4fNbfAUC/GL8iCxNuJVxGL8j8RVpTCjVyWeYD6d2vrVfuPa13jy+318w9U1+M1uRBSXmycvG2LIzqqx1ZKnqMaiF1hu51FQBAPn76z7Cvi6dPXbWrkLkpvr5zWWw1ot3xrrzZfO+2MoyavzqqS9Xc2A6ORKoTNZmfvixTBT+p1LEiS9pFZ+KubNaKuxnpWLabG3qcXdIEmZDOw43z32vaA+WerGgZPvNMXg1RoN7TvKfdc51W0YosLD7u3sIX9x4dh79t7Rq8WlzXYJV3nSHPdAAAdFRqy+j23+6YlerEr50L95FJuV57LJuLNZk1NxV1IBfk6eKqvKoVH4gCADDotjfdYLAnXU2dlmv35fqngrso51xniF1XAQBkVl7LqP+U1NwgHi3IlP041PGhuYn+IUttTzkrMjtzVW5cnCz8BpG4ZVSfzH77Kht7P8x+Bm67Zv9nTUUgap87PzVvtCboJAqRE0/Yp8IbJr2ciofS7V66LTfGx3JMK29/3HP4y9aKPNnYcbbpt3bsrzgTZTifTdTkgakItG0/ZVq1P602+WTtD2fcmHfcUdssMp2ro+eLba3PuN26+f6f797Ld5PWwe93TGvD+956SefIF3G8sfJz2HfNN6qmKuy8z7ulwzveNt3KOS/PeS1WIemkXX2vmf+jb/JVjNZNPz1aj7/1u6aM3fpgjteUFc51Z5jjfRp6vMHrM0qMlr8s+cqIfR0FWgRj6ZQnE5+jgDQtk23Xb0Z+fojZMptWnnWGJHUVAEBmpbWM6rgO52Y68VvHwl2DhukX95xAcNZUWjavnTcVSVMpu/NMnk6IrG88l5uP7NiQfuHcvJ7LigZmwYq7Mu+dfU48eUVzgKQ38rDKhLNunG47WFlRut2398x2C5pAwmz3pg1E1cHGH/Jm36SDqXj4n+2tyZPWSVzySiv9fx5pPmk+bt1msrSOmc5OvgxPZ93m0rtinvxn264GOCYIN9/XgLL1+5rWf4bOdtn8vSb2e7HyVYpzlCU/R6aV2VLz+35Sl+/fdmU5LJ2OdpxxcEXMEtur/KzOnDqUZXPNLTllgP1QFXm8mcrJtNdRNlnPkX/PNffP3+MEokUY/01mnRf1wiaYctMpvzpD3LoKACAfJbWMamVLJ1GI8/TaVGA3pfHU13my+qPxPfP75Xc/5Pc7xT6xTNQyqvts9mlGb15nJ6USOD6tBD2xAVpYa4LeSNtb7HT2P6346OsL8nQxonVEt2uffFdn7sqDwNPf4HbzG/fa0kJh/t/X5v/9x0krfVpvKknaamr295dv9rhat50hrRpP2RuCx63f13X0VGtLQFHp7DyR//ZBVo9Od27tSyPjdv08bLSNm7ItCfVz5rpqqaj6aWU0b/fQ/O6D3xoe2nqS4Rxlys+B7VbN7x9Mm++2HKvbapJTi08Ufz+6taq0t/Y5+22Oy02nj+Z43bTI7/q1Uuerxj5naRn1NJ2nY3MtarCnv0hyjvxj6XBvyZKvjLTXkSe87Oki47WvUs174J2/HK+TVPuRhKZVbnWGBHUVAEAuymkZ3f9qKxnnwyv7QSOXO4/xML+/X3Agmpjus9mn61phaNlvneb+gZ3m/mDvrxitDYEASSsEWqELTQtTuXvnVVa0YhiorBi63VeLNanqm733BbQ2mMqmrTj/ot2izJFpK8fsnLu/lVOnnb+So/81H3NuaaWVhdWm467obKbODI4i6393m8Exbjob//5wK6vmmOdb0llGxmTqoknrvANRlWW7pgK26lWgNX+0XlP6/VpIBdp8TxetV+35akwquk27jqAcrXVpEUpyjrLkZ/PdTzYQdY7VfLflWH+x2+xX/n7b95Xxy/610HYNZdWr/BzQdp5GJuW+d36PvkQv05FYxnIy7XWUVeZzdCh1G/hXR0MeGnRjru2bweVcXj6UW87yKclbN937g5F3PvbkWWdIUlcBAOSihGA0UFFMPRlAXb7/a1+eZNo6oE9lvQCp05Pp479kw6lsaGUlorIx8rOccV7kn37VmSvtN/eJu/HGJWUW9dTaBEtxgo4k6aycpQKUrh25W0yFKkyG7foTl5jjS7KcQ7BrX2S+ihX0JzxHWfKzru/pfHcwF6d3g6T2/W480Pkh/7iv8tGr/GxFHW/w/ObWpTNjOZn2Osos8zk6lO/OcWu36Bz22+sa/OJe4vVSC8vHHaW55+VRVwEAJFV8MBqnMtDJ+IJsPip4WvhcHMr21orcevkwsDi4++N1eezsizzxuqmZoK5rgOQ/Od+RpZbtNX7s/2d8/zff8TphFZz4T+CzppWuIWdftpiqrTr5Jbo7WMJ0ViONWSEPnPFH804rwZuixy2n3m6jVURGf05UqfrHVDodHcdLxQn6E56jDPm5br7roDUjnl7l567G5EzeLdiZysn011FmvTpH9n7b/PNMXi/elVm/hXNNbha8dmgmaesMWesqAIBUCg9GG1PLn+DJAHTMik5AEjYpT2znZcZWPrS7WH7d1PpMLmmVRbp01gDq9dwF21qh3YjXZOXtPacy63Zfs7/IWdbtpuqiF0PhXe9QqF7l57gOjnodGDcr6jrqpH/O0ZhUtBv1ncfOhECOva/FTIzXQ0NRVwGAPlRwMLorn53xNhVZmC5g4oK+0BiTpMc5O/es5amyqVB4Y7+6mKq5s/9pF6OVFysxKxs6UUjz9sJ+QrvFlS6/tMoiXTqbPdbxZbqfi+b7M6aSaFtx3O5rxcwCqnq13U78FtTcW4wGKT8Ptn7MV578g7/BzFfpz1GjlTnPXjH+Qyj5IfWY+aPRc+G0/OK+6kPDUFcBgP5UbDA6DJMB+F17TAVq5rbcH89SmdHJMJ7Z8Xi6zEGH5Qb8MUXxKwU9l2taZZEgncN4E4jc0UqinfxEA9vNgruuxd5uoxttvEmzGuK1eGacHCVMhvzcfUzaoWzrTLoIl2N+9gOPVHIe56gylZPpr6PcJT5HgX0vpJU5uht+q+IeXOWIiYsAoGcKDEYbkwHMXooxLu8ECK1A6ULpiSrCY3L9zl27NpsJlKLWvwtMulF4EFSAfNIqi5jp3E1gbFepumy3EVR2m/G2WeWsrtFndPpeERMGZcnPfsCxI5/b9tkEomvNS4qgg5j5OSzAcZbtiTXmO1x9670du5njupgZy8m011GovCbwiXmO/H3PrUutKZ+98xu7K2sBD65yN3x1FQDoJ8UFo4HJAHq24HYZ/MqOyPqn4DgeO0mPs1C6/Si24DIHGiiFzV44KTe8Lq17z2Vag6mWaffruh6d7kO/TDZRSFplESedtZKsaWj2d99UrOxnLvPeVMD9pR9yrmxl2W7l4lUbaJu0fvtQlltn5LR5401rBTtQ0W3/nj1Pdj1Pmbia4zp8GfLzyK8yY1uB1t/q99zXzqzJL93F8NGQPl+NydSEd47ey7I/mY6el4f++rFdHf3V3Eqp53UtuLZtyEzdqWUrJ1NfRwH+Ax7noVew3IuWR5kT3G77Q5ok3G3e8id6cpf1isWvB/TxTNfDUlcBgD7103+GfZ0rb6HryGn8+1yShbr9Rc1DVWTWVO7XIxbc77gguk72Yxc+j1qCRCtxzmL+neS22Pihv3D97FxjtkLvGJrOtam8hC2eniWtohfU7y5LOnfeZyvi/GSRebsajL3rHOAHz2NDYA3WCFWTpx6YPNW23QznSKXOz8Fz2MLZ13Nf3WAp1/PUuB66attu47uRZWTGtIySLV/ZZZHsu2YVWZg7Lxtv9Ty07nO8tEp8v/DPe9RSQq5M5WTq66jBv5+ECUnrfMqcQJrHzPcd91ONmvN6zZzXmA+hktxHe2XQ6yoAMOgKahltTAYwiOv+JVW5+Nid9dC2zrgqTiX4takg3T9nx7QlNXJZXpn/16HT6Ye03OmC6zrt/sKE2Z79zFM1FYeFGbMPfVQJKCytsuiSzpWLt80+15ylDZrT2LzXNNaJmGJU9JLKvF1nBsxnNr2b/0rf6wRSN0Ir0MHv2Y8sb7uvwgLRHKTOz3oOg8tPKHuMRe3roMqWr7Q3QUs66/f0+n1kgsFT9qM2Y3L9mjcJT8h2J2rydLG4CYQylZOpr6MGf2bcluspSj5ljknzS41yLXU3Y90H5/zoNuMHovqgwGvBnT3Xn4HosNVVAKAfFdIy6j/V7eOnoQCAARezZXSY+a2TMVtH8xFole3jegB1FQDovQJaRg/9mSv792koAGDQ1b99sd3rmQU1ylTNTtSmvT5Kmj+gvvWH7ZJ9If740tJRVwGAfpB/MOrNtDla69p1CQCAjnTyHJ3Mp3XiIfP5Ezuusjrxa0ktfoNoUu57wxD2nsutreZ0zJ05L95419m5/MY65466CgD0hcImMAIAIDN/IqdwOl5VxwWjMw3e3RmPC+zSHJhITMfS9m4taQDAoCAYBQD0MV1a5C/589MXWT9yW9yUTuQzc+mKXCfgiU2XjHly9FuhwbvOXPz53G0CUQBALASjAAAAAIDSFbS0CwAAAAAA0QhGAQAAAAClIxgFAAAAAJSOYBQAAAAAUDqCUQAAAABA6QhGAQAAAAClIxgFAAAAAJSOYBQAAAAAUDqCUQAAAABA6QhGAQAAAAClIxgFAAAAAJSOYBQAAAAAUDqCUQAAAABA6QhGAQAAAAClIxgFAAAAAJSOYBQAAAAAUDqCUQAAAABA6QhGAQAAAAClIxgFAAAAAJSOYBQAAAAAUDqCUQAAAABA6QhGAQAAAAClIxgFAAAAAJSOYBQAAAAAUDqCUQAAAABA6QhGAQAAAAClIxgFAAAAAJSOYBQAAAAAUDqCUQAAAABA6QhGAQAAAAClIxgFAAAAAJSOYBQAAAAAUDqCUQAAAABA6QhGAQAAAAClIxgFAAAAAJSOYBQAAAAAUDqCUQAAAABA6QhGAQAAAAClIxgFAAAAAJTup/8M+7o022vzsrQnUp15Jq8ujtlPI+yvyPTbHZmdW5X74/YzDKhDefPynqwcxTz3yFX9eFf+fPdevh/V5cB+5rogTx8tyJR9B8Cy9592XDPDoL71UG5u1EVGa/L6zmWp2M8H1Uk7ns6ob/SLgch3OcYaiWIcOHrQMrorn81JEpMdZ87GPUkVOXPKvux7pgBceyjTj+Zl+uWKbNtPkbdBTOfe7bNzM3jxXNbbAlEgLco6AMBJkUeskSbGQenBaH3rvazri4mrcn3E+ajZ8UdZXvso28f2favjXVkuuOKjLUhaybqllazAzy2z3Tf7h1K3fxdq/4Os7Nm/ONqR1a1D9/VJ5JwrUxl9+bFzmhRhENO5V/tsztMTfSqpRmvydHFVNh8Ff/qshaeX+Sql8DLDvHfKshNaBgxDWTe+0HytzF2wvwByMIBlXc+QVsiTk5/yjzW6xjgIVXIweijbtvIye27S+bdV/dsXWd9bk6UXD2XZBH5y6rRU5bRURsx3t0xB5LTu7Mhn/V3utFvHvNOCpJWs1hakA7Pdlbf35EmnStf4FVmYsJ0QRi/I/AluonfPVY9uC4OYzj3aZz1Pbl6+IE/vXJapPi8ge5qvEutUZpj3Tln2h7yJuuENsiEq64AiDFZZ11ukFfLk5qe8Y43uMQ7ClRuM6pP0I/PvaE1uRPTJrlx8LJuLd00lR2TdBH7T77QivSOrL+/J0kZdqhNuy8798bwrPruy/MgdX6CqE3fldUsL0mtnvypyxv2TCGNyvWaOQb9zhzFFxRnEdO7NPv9zZG/gE7+RH3O2veaVGRWZnWktM57J67mazI6edv725KGsAwAMnkJijRgxDsKVGoxu/+1OBFGd+NVU3ToYmXQrOYumImcr0gfaqmMyxqtaES072rrx3G1aN3u24GxnUiot26nY/bpPCwCA44+y6owN0YkKbptyobXMGJPK+GW5bwI1uusAANBHco41Ysc4aFPebLqm4nbrxZp7oruNUTs+lO3NP2RJm7tHzSk1maQ6qt1ktfXhqtzQSp/901wEZkxMNftVqhkXNQC2rSpdZhjzZuaK/Dsdr7b5XjaC3QRNus1eui03xk2F2H6UmX8OY2rb38Yxu+lsjm3rg6xu7Pj/Z1W7+10zaRZWCOQxs2VEWlVHz8v8dAEPOlLvs5dW+nDksQlmzDWx9ocJfhr73TGtAvz8M3FXNmvxu454s+/qpEc+zVcTOV+DmfNVQ2n7rALnNtMMfGmuX2/bflqE5I+JmjwwN9Sw6y91mZPHNWiEzuwc5zylSas8+ccf83h1f799Nfv7w9y/4uTJHt8XUuWrnCROK5VTORmWVmZrVe1qry+7nIvY8irrUqWVue46zmoayHvmN7Nzj8PLtDT5Ko1e1zc8ZR1vi/r+R/nz05fme1mblnIo6/WbMl/5slxHvUjnPGONJDEO2pTWMuqPW+vSVVALy+kX95yb7KwpQDavnTcZ2RQYd57JU21O33guNx/ZPt458Z5m6IVd3rinMZnyxlsdfYkeRO3PzGXS41L7RVw3hc+tsPFq5qLSrgc3+3SWS52xTG8US4Ebg9JxudqHv4gxdm7eCk8rZ2zfu36cGKEu37+5Xci1wOyeVvq3wUl0bIVV7T1v+tz7udU2BlpvYI3Zd5tovtJrsO/yVQ/22Rlj4lr/e9e+SiaX61dvgmH5w+Tpm02TfeRT5mTTfJ7ajtmcpz/37fsWA1fWOZUTs79axpl9bGKPtfn8qDG5fslOktTr+0LsfJWDVGkVlLScbIi8L5j/s/l9n8icVmGaA1EN7MMC0WGrb/TqePVB0823a10C0S6SXr8Z81WW66gX6Zx3rBE3xkG4klpG9Sah3WC9p5f24zB6QWxKo5XKZNLptz8a3zO/X373Q37PbYxSoBBO2HIUydnnOE/PvXTxntyFBMKd/i+n8HCfHFZn7sqDwFMcvbifmO+5F0dOx9VCL+Zka0cFb3guHZv7QLtEm9f6JPCJKYBj73PsdDY6pJXzdOzbB1k9Ol3ME/+g2PucNq0aeSqu1rznn1ejOa0Oze8+yBPvhh77vCeTPF/1bp/91ik1as5pjJZqX5br189HDcH/Q79/0/6+udU2Y5nTKsnfGsH00if0Tb0R7FPq+jlT1rdWhHtc1vmSHK/us7lXzWjl5KzZ30C+CO5z+3nofo4a+T1kP3qSrzJKnVYZ7ymB43W+Nx3YdlOrSf+UdenTKmp7Jr/pMCUnDU1+Wowow3p8DSZPq4x5o0fHG3kv05bDdyZgc44noi4dyM+e2NdvhnyV6TrqVb7S7eYWa3hldowYB6HKaRnd/+pWjkfPd6+ojVzu3Ffb/F7HYHXPHHEdyndbWFVHQy6wWC1JaU3K7xPuq4O9v0KeOJnC9JMtWNqetpjfvfMuYC0cGhewqowvyKvFmttys/e+L2fzdPbb3hiUjq97MGPfHf0v4ZPdLv794RZo5mY735JWMjImUxdNehUdiGYQP60m5b4/gY77o0/5HFqYt/xOf5puLKYA9paBac9XY1LRdPKWtzhai2zFKlUP93mq9kwWRu0b5ym7KSNeuk9TO+ffPK9fvQHqeQzmjyv+fjW32mYpczIy56kxxlbzc0s5r9dhLSQQHdSyTu9lOl5Y97flfqb77F2/7eeh+znyZmyszlwp8L6QJF9llDqtmrn5Kri/ne4pjbzuf68lP/7iXdv9JKe0cgUCUQ0U9MFGy//pGtBrMCBx3ujJ8Taubb1fN21XxzfeuSuzzpu6bHzrVg9NeP2mzldZrqMe5is93rxijSQxDkKVEIwGMmrqQb11+f6vfZm34//Jd/uyF6am7YUW1iXr+C/Z8J6CTbc+tfN+16Fr8cjPdubfAtMvJbfgad/vyik78+jRD/nHfZUPv0ulroe421KY9rcy08rvatIpXxVVIU2pt/s8ZioIq3bWXPuR17VIH1ytReS13K7fqCexJgiPqACkLnMy2t50Kx1a6X0QdcxhBrysSyPeOQpJjx7mq15LXE56M1+aYx3KxemPbWuOpkG31sYBvwYT540+ON7wpUHG5Eys66/E6zfLddR3+SrNNvKIcVB8MBons3Uy7i46nlt3oCTstt2fQAtInkZ+lRnn/21/0uVXssOetvgtfTuy1NJy2/hxu3qp7//m1Zo7oEYuy7zX2uCMBdBA4aO8yXHs8UkQbxmY/qqQ9sM+u7PmmnJiUceb6IQNroM9d9xJ2xPd3K5fXRfNvmwxVbNlV62lUpO2zMnkUOrOfcAY/TnZDXugy7pD2d5akVsvH7bts9cVL1TgHK1sNj886Tg2qZf5KrOUaZVS3aSVYyBbM7Km1Rd58sLmg4m73bu9Dlt9ow+ON/yhaaMnX2dpr9/k+SrTddRP+SptrJE1xoGj8GDUfxqed5evvPhPXUzF8agXBeiYP6lIc/eHRneN/CcRGU5aCL+euxAIFNZk5e09p8DTwDR6shC0+kVnnlN5d6cuUCn7bLuavnpkglKvC5gGFC/6aWKP3pY5bcMhTiodk6QTiIRNCNJVYCKjva+BvOOdo/xbrnsqU1oNmVzS6rzMeMM39t5z7+sbjbJZJxy8FezFpWNGA0sQ5t6azzWYSt/HOAOi4GDUm/Gvn2+cgW4PPapYVy5edccBBLtkBZ62/N7xSY1OYGGfdHX4CeuiMoycMQiaJtqCNWMCU3vundl0C5rF9yTyWyOTtnL1ULn7bCoVFx/Laz8g3ZHPoWNVe3P9ZitzemWQyrrGWCi9/83OPWvbz0beiDD+mx0fFsg73jnq2goxZGk1NPJLKx3v7s4nYB+Wxbr3DVt9o/zj9ctmw+vF5bQQ6myzTvms5z3vSXJ6fQ0Oar4ahBhnMBQbjA7EoN7Ak6iw8Tml8CasaHTJ6tgVS/ljIH9InQAqOW/SIqdrpR2fFUj/YRWv9bDR5bIfWrn6eZ8rZ3W6+BA9v35TlDmZNLpJx5tYJWAQyzo/sNfxarfl/niaPDcpN2wF0Ouy5z2Fj2y5Htq0Sq77mPtGT4G+kWtamXugPwHbjix16r0xbPWNHh7v9prb+qmzjc969zZHxfns6WLE+q9ZZMhXma6jQc9XTFyUmwKD0cag3n7vZtp4EtW77nT+hBVOl6wYXbECg7p7HkDlOIFOTwTGkw47P3jqNOtsWRN/xMxXfbXPrfwxMRVnrTtfH1y/icucjBoPDRLOaNxPZV0KZ06F5LfjXfkzRqDj521nJknvKXyHlushTqvE/IpwWK8Fcz2sNS8LUqgU99B80konYPNmaDUBadR6jsNW3+jV8fozjl+Q+ZrOQ/A40DL4uPPsrzlJnK+yXEcDXV4NTowzCIoLRv0nLf3a5StoUu57Sz9ogWwXum269I4Pi51115+wwlzQWzbtOj5taTw117EF03oTMfsYVNf1nXQw+loxF3mj1UdvYv095rLupIPZx7YlN8z7/ZXGkhPDMp4tSiAwX39rroOmmYdtfvLWMZu4Wsh6WonzVY/2WdeD8/NU6z5615633bZruffXb/IyJ5tg97P282TY433TVqHpg7RKyq9kmWP9FMzDdj918pg4gU5wsql3790Wk7blXIKGOK2S8tNW86Omk/taK97LL93F8IuWvKwrIq1M/cfrHaTLU5n9aL5HqmGrb/T6eO2s/2Yb+lO4LPkq03U0gOWVZ6BinP7303+GfZ0rb3HzqCm1+1HTArsdNB/TYdvCypG6TJ8eXOxYxVlUfHvtobuYcCd5LxYc0LTof6u2422kVWS+cBYe1gq8jiEIrvGULZ1b0zZUt+ntE8uyz1nSqpl/jmLng8DacxGCi4cXIVm+UuXvc6w8pTrkq9TXb8xz302yMieHsk4rKO86n6eofSi/rCuyzKnI7ISpvOnxdMgfDv9cq0rEkg3Nep2vkkqfVhnLSZ20xS6438opL859lZv63W7nKIOkZV2WfOV/N+x4gmkRcbzDU99w9WuZUx29IPPXrsjUSMsxZbh+M5VXGa+jXuerNLy8GJm3kEhBLaONQb2DtH6XO7mNN7FNy+Vi3mt//YW54jJesOVAC5M4T1t05s7Xi3dlIbCchEcLrIWZu/K6wAvYn6HWPhnrV5WLt+1akK3pZN5rOumA/ZBCcjhNyv07z0LPq5dWwcXDi5A8X5W/zxWdoMjkKefaa91PW148Xeycr3p9/aYpczIZCZ6n5lTR9zpxxo2Ifeh1WiXl5o/W/Kj5wuynjvs6Z8dadeNPZGTEbLke2rRKauSyvDLp1DQ2z+bDoss4T9KyrrC00rQw/6/jaE1uhrSQDlt9o/zjHZOpS+b47DvnPqI/9q3nQFuwX9xzevDlJVO+yngdDVp5NagxTj8rpGXUf8LSZ08yAAAYLLuybNfai9NbBsCACvSC0EAudCIh7V2i3Wb1dURLI4pFjJO/AlpGD/2Zs2bPcZIAAEjLm11TK55RrcYABt/2324g6l7rES1uI95M6OgNYpwi5B+MerNWcuMEACCdY13k3hsjV5GFa7SAAEPhaE2eOBMY2fcenczHGV/pvq1O/EqZUDZinEIUNoERAABIIHQikHiTFgEYcB0mAmrlTAwUYzwmMAgIRgEA6AdNlVGdPOSqPJg2FU4CUWBI6FImH2R174ccHLVMIeVMaHRe5qd/bZ9JFxhgBKMAAAAAgNIVtLQLAAAAAADRCEYBAAAAAKUjGAUAAAAAlI5gFAAAAABQOoJRAAAAAEDpCEYBAAAAAKUjGAUAAAAAlI5gFAAAAABQOoJRAAAAAEDpCEYBAAAAAKUjGAUAAAAAlI5gFAAAAABQOoJRAAAAAEDpCEYBAAAAAKUjGAUAAAAAlI5gFAAAAABQOoJRAAAAAEDpCEYBAAAAAKUjGAUAAAAAlI5gFAAAAABQOoJRAAAAAEDpCEYBAAAAAKUjGAUAAAAAlI5gFAAAAABQOoJRAAAAAEDpCEYBAAAAAKUjGAUAAAAAlI5gFAAAAABQOoJRAAAAAEDpCEYBAAAAAKUjGAUAAAAAlI5gFAAAAABQOoJRAAAAAEDpCEYBAAAAAKUjGAUAAAAAlI5gFAAAAABQOoJRAAAAAEDpCEYBAAAAAKUjGAUAAAAAlO6n/wz7ujTba/OytCdSnXkmry6O2U8j7K/I9NsdmZ1blfvj9jNkZ9O13QV5+mhBpuw7HMqbl/dk5ShmfkVh6lsP5eZGXWS0Jq/vXJaK/byv5FheJSonAQAABlAPWkZ35bOpYImpSs6cjVvBqsiZU/Zl3zPBy9pDmX40L9MvV2TbfgpgWORRXqUpJwEAAAZL6cFofeu9rOuLiatyfcT5qNnxR1le+yjbx/Z9q+NdWc45yNMWFyd4DPm59fKhLG/tSt3+bVf7H2Rlz/710Y6sbh26r/vN+IJsPlpt/MxdsL844Zz8Zc73y4/xzykQpaDyqms5CQAAcAKUHIweyrYN1GbPTTr/tqp/+yLre2uy9MIEgfsmkDt1WqpyWioj5rsaNL54LusmyPusvyvBwVFd1jeey81HGpTG2Ob4FVmYsB0IRy/IPN3r+oqbvwhDkY9iyqvu5SQAAMBJUG4wqq2GR+bf0ZrciBhPVbn4WDYX75qATmT97T2ZfvdFDmRHVl/ek6WNulQnavJ0UcdjFRDk6Vi0YGvho2fyeq4ms6P6Sw1K78mtrgHpmFyvmWPQ799h7CVwkhVSXsUoJwEAAE6CUoPR7b/dCXOqE792nnxkZNIN6BZNIHjkthAc6MQ6plL3qnZZpkrrtjYmlfHLcv/OM1lwAlKzHxt/yJuoLnkAhk/O5VXschIAAGDAlTeb7vFHufViza2kdZut9fhQtjf/kCXtqjZqqmOmglc1weDBUUVmZ67KjYuTuVbSYs3S6e9/yOyWecxMe7wrbzbfy4Y5Zt2Gwxx7dfS8zE+HVWi9WV4rsrD4WK473QI/yOrejkkn9y+q2k34mtl+nMqwfwwx91n399tXs78/nK7MPrPPsxNh56gxK2232VC9WUS7/V0sgfMWS9s2W2fTNfun6bxh0tn+Rax0jji/s5duy43xsWzH2EF9/6P8+emLrAfPUZuWc+7lBT8tTN5a+8Pkrca+a4vfAxNohe534rzRIiytzDeqYt93vE57kM55lldJykkAAIABV1rLqI6tciqHE791rGA5kwm9uOcEI7Om8r957byphJrK/p1n8lS7wnnjN0saM+ob+VVmvNbRvb9ynfzGPebnzsRHjcq3YSq1Bzoe7V2nyXbq8v2bTpKi3QIbgag6ONpxxrLl3pLrVJjN/jrba9kz8945R20TBI3J9Ut2kqSjL9ETvviziJrzfyljIJoznSFVA1Mnne1nqls6101w56RXyPnVrp03C5p1WYP6m2/XugSiXei5fqTXY/O+a75sP8dGqrzREHktmG80v2/Xi3TOu7yKW04CAACcBCW1jJpg6dFzWTehhduKZz8Oo5XZTWm0BjqtND8a3zO/X373Q37PcTxmrJZRw/+7bq0WSVoZncq71+J6Vx4EW1G0xeXbB1k9Oh3SChVoabSqE+b70+b7TjqZNDcVc2dGzjgtjEn32ZyDGa0wn7XbszQgeGL+H/d4WtdH9PJB2O9csdM4pbjnuiEinWvuedKWxycm4HMDiLuyaT5v0uH8BtMq9LsZNNKxZbvacvjOBGzO8URcj35eaAj+H7rfN+3v29bTTJ03jMB2m/Kyamp9DDl3PUpnZ7u5lVcJykkAAIAToJyW0f2vNig6373L6MjlzuOszO/v93xioB9Sz6u18d8fbiVZW1OCgagaGZOpiwtOejR9HsKp3GuA5KXbyKTc95Zr6dgSmYKeI3MOruv+tpynyviCPJhx97a9BXlSfp9wX4W3LpuAQ4MNozpzpcfnOJyfzva9jin2jleO/tdyTCaQfecFSBp8NZ9fTatXizWp6pu99zm2YDfSUYOvpu3q+MY7d2XWeVOXjW/dWuw0MFpt+j8qOmO07SWw/veu+8KTOm+YtPpkA9HWvKzMtfCL3Wa7XqWzkWd5laScBAAAOAFKCEYDlczUE3LU5fu/9uVJ4ywFoXRN0gTrmQa4FfCQ2TrHf/ODjn5Jv6lpGxSEBcjHf8mG02KngXnI8fRYVDpXzDl0HP2Qf9xXrjjHM/KznHFeFHOOwpcGGZMzkYFdUFQL3ZhUYn0/AW8GWbPNmbMJz30fpHOzNNvIo5wEAAAYLMUHo1kDjPEFZ5mUpq6APafrCNqXWY1clnmvtdAZXzYvt9Y+yptcxsQ2go7v/+Y9xvZQtrdW5NbLhzJt9jn443UPDeWPva3LymZzq9qJGy/nt3rvyFJLGjV+bFdqI/9zFNJy6TiU78412U10Pp+q2eWPQru8Js8bdZNWjjStgn2Qzr605VWfP4gBAAAoQuHB6PamN55u8AOMf7JMBNOBVuxfz12wLaTu5DArumahqURrYJprF9s86Dg5ndQmbJKargITGe19DUwo43UtrcjCdI5j+obSmExN2La1vedyK9jirmNGX3qBWYpWyG4y5Y3hdZLKSQAAgLgKDka9mVFPQoBxKHWvNamACqMzrk1bmhafydMZE5jaFk1nNt0iZsRNrTE+T8/r7Nwzt4Us8PPaG0MZxe8+vCOf950XjZahEzleTidjak6jsJ/QrtYpVS5etWncaHF3Wgh1tlknH+u5y3uSnBzyRiblp3M+TlI5CQAAEF+xwehJmpDDH9MWNQ4vJ96kRXdMxdmbdCWkS2ssftc/XZYkpwp44P+sztyW++Np/t9JuWGDEq8bqdcy1G/LuWTijwfOccKrmLbX7KzFEzWZ1bUvfRXns6eLj/Pv+p4hb0SOu/UFJmVq1cN0zgUTFwEAgCFVYDDamJBj4AMMXSbFW+pitCY3yhq/GhhPmobf9U8uyO8F7HNogGvS6s+ooCGgclbXYzSc2U29lqFi9jNUZNCTo8CkOakeJqR1/FFWbXrO13Q218eBlsHHnWd/zUnivBGYyMtvLfeZQHSteXmdJr1K51ycoHISAAAgoeKC0cCEHKUFGHnTtQ11IhZvvU7tRnct3wpjXf9/HRe6f9gY1+cw7/dXbFAhUh3t0Mp09Fdzi5Du99pDZyF+NTuX41I4fsVfZP1TcDxrIK2igoagwERGG+/eu614JSzn4gfBOtnNy6LH4zZagHXs5vTLFbO95slz6l4eWysiiLIzNJtt6E/hsuQNPz+Y777VdHJfOw+CXt7z83K4XqdzBiehnAQAAEjpp/8M+zpX22vzTgUyctmRPlLfeth5Blg1ekGeXjNBXVuL0qG8MZXlyFaboJDF+uNtO2SR/5jbDU//Ive5IrMTJqDQFrDQ/Q4wwfa01+Js/qqshf69vBmqbZ8baRWZl/3j0DGL7YG/+2CgyzmeuBsxM20aMfOGydPz166YPN1yTF2Op5NMeUMnP3rhteY3q5r0eXDuq9zU/YrIV+Wnc3aDVE4CAADkraCW0caEHLnP1lmmUW983TPZ1IXrCwiUKhdvy+s5d1yf22LnMe9NsLCgk8B0CuhCeftdzGQtlYuP3dl/bUuWS7d5V17rWMRzdvxfN/5ERkaJ4+X82Yub9r84UzWTXot3ZWGi9Ry7AeHCjEm3XAOkMZm61Jid2cnHbflL5OBoR5Ze3JPlXJYRcmXKGyOX5ZVJp6Yxrua1ToT0yqRPt2ug/HTO6oSUkwAAACkV0jLqt470WSvEyRKjxa7v7cqyXf9xdq7f1pIdYIEWZw3kQicS0u6vXvfzbi3YKATlJAAAGHYFtIwe+rNeFjrrLAaeN+OrBkOlTQo1BLb/tl2fnXSNeEgxMim/Z5gcC1lRTgIAAOQfjHpLoBBgIMrxrrx56Y3bzH9SKFhHa/LEmcDIvvfoZD6BCa6qE7+S/mWjnAQAAChuAiMUbcC66YZOTlPepEVDpcNEQK2ciYFijMcEAAAA8lbgOqNAlMaENgSiBdCJgB49k6czOpFQSJipkxnZibniTAwEAAAAFIGWUQAAAABA6WgZBQAAAACUjmAUAAAAAFA6glEAAAAAQOkIRgEAAAAApSMYBQAAAACUjmAUAAAAAFA6glEAAAAAQMlE/h9t1Y8/h/pKqAAAAABJRU5ErkJggg==;" vertex="1" parent="1">
          <mxGeometry x="70" y="1198.53" width="700" height="172.93" as="geometry" />
        </mxCell>
        <mxCell id="MbufP7EUfqNuo32D7OIQ-52" value="" style="shape=flexArrow;endArrow=classic;startArrow=classic;html=1;rounded=0;" edge="1" parent="1">
          <mxGeometry width="100" height="100" relative="1" as="geometry">
            <mxPoint x="330" y="1120" as="sourcePoint" />
            <mxPoint x="890" y="1120" as="targetPoint" />
          </mxGeometry>
        </mxCell>
        <mxCell id="MbufP7EUfqNuo32D7OIQ-53" value="&lt;font style=&quot;font-size: 24px;&quot;&gt;object&lt;br&gt;&lt;/font&gt;" style="text;html=1;strokeColor=none;fillColor=none;align=center;verticalAlign=middle;whiteSpace=wrap;rounded=0;fontStyle=1" vertex="1" parent="1">
          <mxGeometry x="470" y="1080" width="170" height="30" as="geometry" />
        </mxCell>
        <mxCell id="MbufP7EUfqNuo32D7OIQ-54" value="LIST" style="rounded=0;whiteSpace=wrap;html=1;" vertex="1" parent="1">
          <mxGeometry x="940" y="1340" width="120" height="60" as="geometry" />
        </mxCell>
        <mxCell id="MbufP7EUfqNuo32D7OIQ-55" value="&lt;span style=&quot;color: rgb(0, 0, 0); font-family: Helvetica; font-size: 12px; font-style: normal; font-variant-ligatures: normal; font-variant-caps: normal; font-weight: 400; letter-spacing: normal; orphans: 2; text-align: center; text-indent: 0px; text-transform: none; widows: 2; word-spacing: 0px; -webkit-text-stroke-width: 0px; background-color: rgb(251, 251, 251); text-decoration-thickness: initial; text-decoration-style: initial; text-decoration-color: initial; float: none; display: inline !important;&quot;&gt;listMarks&lt;/span&gt;" style="text;whiteSpace=wrap;html=1;" vertex="1" parent="1">
          <mxGeometry x="940" y="1310" width="60" height="40" as="geometry" />
        </mxCell>
      </root>
    </mxGraphModel>
  </diagram>
</mxfile>
